<?xml version="1.0" encoding="UTF-8" standalone="no"?>
<svg width="40px" height="42px" viewBox="0 0 40 42" version="1.1" xmlns="http://www.w3.org/2000/svg" xmlns:xlink="http://www.w3.org/1999/xlink">
    <!-- Generator: Sketch 41.2 (35397) - http://www.bohemiancoding.com/sketch -->
    <title>Group 13</title>
    <desc>Created with Sketch.</desc>
    <defs>
        <rect id="path-1" x="0" y="0" width="40" height="40" rx="4"></rect>
        <filter x="-50%" y="-50%" width="200%" height="200%" filterUnits="objectBoundingBox" id="filter-2">
            <feOffset dx="0" dy="2" in="SourceAlpha" result="shadowOffsetOuter1"></feOffset>
            <feComposite in="shadowOffsetOuter1" in2="SourceAlpha" operator="out" result="shadowOffsetOuter1"></feComposite>
            <feColorMatrix values="0 0 0 0 0   0 0 0 0 0   0 0 0 0 0  0 0 0 0.5 0" type="matrix" in="shadowOffsetOuter1"></feColorMatrix>
        </filter>
        <mask id="mask-3" maskContentUnits="userSpaceOnUse" maskUnits="objectBoundingBox" x="0" y="0" width="40" height="40" fill="white">
            <use xlink:href="#path-1"></use>
        </mask>
    </defs>
    <g id="Page-1" stroke="none" stroke-width="1" fill="none" fill-rule="evenodd">
        <g id="Group-13">
            <g id="Group-10-Copy">
                <g id="Rectangle-2-Copy-5">
                    <use fill="black" fill-opacity="1" filter="url(#filter-2)" xlink:href="#path-1"></use>
                    <use stroke="#B7B1A9" mask="url(#mask-3)" stroke-width="2" fill="#3E3832" fill-rule="evenodd" xlink:href="#path-1"></use>
                </g>
            </g>
            <g id="alarm" transform="translate(8.000000, 8.000000)" stroke-width="0.977" stroke="#9B9B9B">
                <g id="Page-1">
                    <g>
                        <g id="Group">
                            <path d="M20.472,10.8502709 C20.472,7.25388387 18.168,4.19323871 14.9415652,3.00820645 C14.7203478,1.59091613 13.4848695,0.503948387 11.9885217,0.503948387 C10.4911305,0.503948387 9.25147827,1.59091613 9.03130436,3.00820645 C5.80486956,4.19323871 3.504,7.25388387 3.504,10.8502709 L3.504,16.2696258 C3.504,17.9026581 2.16208695,19.2260129 0.51026087,19.2260129 L23.4667826,19.2260129 C21.8107826,19.2260129 20.472,17.9026581 20.472,16.2696258 L20.472,10.8502709 Z" id="Stroke-1"></path>
                            <path d="M14.8430609,21.1524129 C14.8430609,22.7854452 13.5011478,24.1088 11.8482783,24.1088 C10.1922783,24.1088 8.8545391,22.7854452 8.8545391,21.1524129" id="Stroke-3"></path>
                        </g>
                    </g>
                </g>
            </g>
        </g>
    </g>
</svg>